<mxfile host="app.diagrams.net" agent="Mozilla/5.0 (Windows NT 10.0; Win64; x64) AppleWebKit/537.36 (KHTML, like Gecko) Chrome/131.0.0.0 Safari/537.36" version="25.0.3">
  <diagram id="KoB4mKFV7NDgyM0Bz56C" name="Halaman-1">
    <mxGraphModel dx="1194" dy="638" grid="1" gridSize="10" guides="1" tooltips="1" connect="1" arrows="1" fold="1" page="1" pageScale="1" pageWidth="827" pageHeight="1169" math="0" shadow="0">
      <root>
        <mxCell id="0" />
        <mxCell id="1" parent="0" />
        <mxCell id="KD9yeSmFwBpChhfOSuyA-2" value="" style="rounded=0;whiteSpace=wrap;html=1;" parent="1" vertex="1">
          <mxGeometry x="344" y="120" width="216" height="650" as="geometry" />
        </mxCell>
        <mxCell id="KD9yeSmFwBpChhfOSuyA-4" value="" style="shape=umlActor;verticalLabelPosition=bottom;verticalAlign=top;html=1;outlineConnect=0;" parent="1" vertex="1">
          <mxGeometry x="110" y="350" width="30" height="60" as="geometry" />
        </mxCell>
        <mxCell id="KD9yeSmFwBpChhfOSuyA-5" value="login" style="ellipse;whiteSpace=wrap;html=1;" parent="1" vertex="1">
          <mxGeometry x="392" y="170" width="120" height="80" as="geometry" />
        </mxCell>
        <mxCell id="KD9yeSmFwBpChhfOSuyA-6" value="Record/prediksi" style="ellipse;whiteSpace=wrap;html=1;" parent="1" vertex="1">
          <mxGeometry x="392" y="270" width="120" height="80" as="geometry" />
        </mxCell>
        <mxCell id="KD9yeSmFwBpChhfOSuyA-7" value="Melihat Riwayat Prediksi" style="ellipse;whiteSpace=wrap;html=1;" parent="1" vertex="1">
          <mxGeometry x="392" y="370" width="120" height="80" as="geometry" />
        </mxCell>
        <mxCell id="KD9yeSmFwBpChhfOSuyA-8" value="Melihat Riwayat&amp;nbsp;&lt;div&gt;Login&lt;/div&gt;" style="ellipse;whiteSpace=wrap;html=1;" parent="1" vertex="1">
          <mxGeometry x="392" y="470" width="120" height="80" as="geometry" />
        </mxCell>
        <mxCell id="KD9yeSmFwBpChhfOSuyA-9" value="Feedback" style="ellipse;whiteSpace=wrap;html=1;" parent="1" vertex="1">
          <mxGeometry x="392" y="570" width="120" height="80" as="geometry" />
        </mxCell>
        <mxCell id="KD9yeSmFwBpChhfOSuyA-13" value="" style="endArrow=classic;html=1;rounded=0;entryX=0;entryY=0.5;entryDx=0;entryDy=0;" parent="1" target="KD9yeSmFwBpChhfOSuyA-5" edge="1">
          <mxGeometry width="50" height="50" relative="1" as="geometry">
            <mxPoint x="140" y="370" as="sourcePoint" />
            <mxPoint x="190" y="320" as="targetPoint" />
          </mxGeometry>
        </mxCell>
        <mxCell id="KD9yeSmFwBpChhfOSuyA-14" value="" style="endArrow=classic;html=1;rounded=0;entryX=0;entryY=0.5;entryDx=0;entryDy=0;" parent="1" target="KD9yeSmFwBpChhfOSuyA-6" edge="1">
          <mxGeometry width="50" height="50" relative="1" as="geometry">
            <mxPoint x="140" y="370" as="sourcePoint" />
            <mxPoint x="290" y="430" as="targetPoint" />
          </mxGeometry>
        </mxCell>
        <mxCell id="KD9yeSmFwBpChhfOSuyA-15" value="" style="endArrow=classic;html=1;rounded=0;entryX=0.058;entryY=0.363;entryDx=0;entryDy=0;entryPerimeter=0;" parent="1" target="KD9yeSmFwBpChhfOSuyA-7" edge="1">
          <mxGeometry width="50" height="50" relative="1" as="geometry">
            <mxPoint x="140" y="370" as="sourcePoint" />
            <mxPoint x="402" y="320" as="targetPoint" />
          </mxGeometry>
        </mxCell>
        <mxCell id="KD9yeSmFwBpChhfOSuyA-16" value="" style="endArrow=classic;html=1;rounded=0;entryX=0.019;entryY=0.593;entryDx=0;entryDy=0;entryPerimeter=0;" parent="1" target="KD9yeSmFwBpChhfOSuyA-8" edge="1">
          <mxGeometry width="50" height="50" relative="1" as="geometry">
            <mxPoint x="140" y="370" as="sourcePoint" />
            <mxPoint x="409" y="409" as="targetPoint" />
          </mxGeometry>
        </mxCell>
        <mxCell id="KD9yeSmFwBpChhfOSuyA-17" value="" style="endArrow=classic;html=1;rounded=0;entryX=0.015;entryY=0.42;entryDx=0;entryDy=0;entryPerimeter=0;exitX=1;exitY=0.3333333333333333;exitDx=0;exitDy=0;exitPerimeter=0;" parent="1" source="KD9yeSmFwBpChhfOSuyA-4" target="KD9yeSmFwBpChhfOSuyA-9" edge="1">
          <mxGeometry width="50" height="50" relative="1" as="geometry">
            <mxPoint x="150" y="380" as="sourcePoint" />
            <mxPoint x="404" y="527" as="targetPoint" />
          </mxGeometry>
        </mxCell>
        <mxCell id="KD9yeSmFwBpChhfOSuyA-18" value="Use Case User" style="text;html=1;align=center;verticalAlign=middle;whiteSpace=wrap;rounded=0;" parent="1" vertex="1">
          <mxGeometry x="402" y="130" width="100" height="30" as="geometry" />
        </mxCell>
        <mxCell id="tyllnEeFZtg6K-hP1SSx-1" value="Feedback" style="ellipse;whiteSpace=wrap;html=1;" vertex="1" parent="1">
          <mxGeometry x="392" y="670" width="120" height="80" as="geometry" />
        </mxCell>
        <mxCell id="tyllnEeFZtg6K-hP1SSx-2" value="" style="endArrow=classic;html=1;rounded=0;entryX=0;entryY=0.5;entryDx=0;entryDy=0;" edge="1" parent="1" target="tyllnEeFZtg6K-hP1SSx-1">
          <mxGeometry width="50" height="50" relative="1" as="geometry">
            <mxPoint x="140" y="370" as="sourcePoint" />
            <mxPoint x="404" y="614" as="targetPoint" />
          </mxGeometry>
        </mxCell>
      </root>
    </mxGraphModel>
  </diagram>
</mxfile>
